<svg width="12" height="12" viewBox="0 0 12 12" fill="none" xmlns="http://www.w3.org/2000/svg">
<path fill-rule="evenodd" clip-rule="evenodd" d="M1.16033 11.3023C1.45403 11.596 1.93021 11.596 2.22391 11.3023L6.46952 7.05673L10.7151 11.3023C11.0088 11.596 11.485 11.596 11.7787 11.3023C12.0724 11.0086 12.0724 10.5325 11.7787 10.2388L7.53311 5.99315L11.7793 1.74693C12.073 1.45323 12.073 0.97705 11.7793 0.683349C11.4856 0.389649 11.0094 0.389649 10.7157 0.683349L6.46952 4.92956L2.22331 0.683351C1.92961 0.38965 1.45343 0.38965 1.15973 0.683351C0.866028 0.977051 0.866028 1.45323 1.15973 1.74693L5.40594 5.99315L1.16033 10.2388C0.866628 10.5325 0.866628 11.0086 1.16033 11.3023Z" fill="#666666"/>
</svg>
