<svg width="15" height="20" viewBox="0 0 15 20" fill="none" xmlns="http://www.w3.org/2000/svg">
<path fill-rule="evenodd" clip-rule="evenodd" d="M12.4185 6.72115C12.4185 9.44626 10.2093 11.6554 7.48424 11.6554C4.75913 11.6554 2.55 9.44626 2.55 6.72115C2.55 3.99605 4.75913 1.78691 7.48424 1.78691C10.2093 1.78691 12.4185 3.99605 12.4185 6.72115ZM10.5734 12.5938C12.6814 11.4826 14.1185 9.2697 14.1185 6.72115C14.1185 3.05716 11.1482 0.0869141 7.48424 0.0869141C3.82025 0.0869141 0.85 3.05716 0.85 6.72115C0.85 9.2697 2.28705 11.4826 4.39504 12.5938C1.80287 13.77 0 16.3808 0 19.4127H1.7C1.7 16.2182 4.28969 13.6285 7.48424 13.6285C10.6788 13.6285 13.2685 16.2182 13.2685 19.4127H14.9685C14.9685 16.3808 13.1656 13.77 10.5734 12.5938Z" fill="#1C1C1C"/>
</svg>
